<?xml version="1.0" encoding="utf-8"?>
<!-- Generator: Adobe Illustrator 26.5.0, SVG Export Plug-In . SVG Version: 6.00 Build 0)  -->
<svg version="1.1" id="Calque_1" xmlns="http://www.w3.org/2000/svg" xmlns:xlink="http://www.w3.org/1999/xlink" x="0px" y="0px"
	 viewBox="0 0 170.1 841.9" style="enable-background:new 0 0 170.1 841.9;" xml:space="preserve">
<style type="text/css">
	.st0{fill:#EEC491;}
	.st1{fill:#D9574F;}
	.st2{fill:#C48886;}
	.st3{fill:#FEDEB9;}
	.st4{display:none;}
	.st5{display:inline;fill:#D9574F;}
	.st6{display:inline;fill:#C48886;}
	.st7{display:inline;fill:#EEC491;}
	.st8{display:inline;fill:#FEDEB9;}
	.st9{display:inline;fill:#341513;}
	.st10{display:inline;fill:#E7B4B0;}
	.st11{display:inline;opacity:0.3;fill:#FFFFFF;}
</style>
<g>
	<g>
		<path class="st0" d="M102.3,730.8h-33V184.5c0,0,15.8-4.5,33,0V730.8z"/>
		<path class="st1" d="M102.3,184.5h-33c0,0-2.1-3.9-4.6-9.9c-8.4-20-21.6-63.3,21.1-63.3c2.1,0,4.1,0.1,5.9,0.3
			C138.4,116.8,102.3,184.5,102.3,184.5z"/>
		<path class="st2" d="M102.3,184.5h-33c0,0-2.1-3.9-4.6-9.9c2.1-0.7,4.6-0.9,6.9-1.2c6.3-1,12.2-4.4,16.1-9.4
			c3.4-4.3,5.3-9.6,7.2-14.8c1.8-5,3.5-10.6,1.1-15.3c-1.3-2.5-3.8-4.7-3.6-7.5c0.2-2.7,2.8-4.8,3.4-7.5c0.5-2.6-1.1-5.1-3.1-6.7
			c-0.3-0.2-0.6-0.4-1-0.6C138.4,116.8,102.3,184.5,102.3,184.5z"/>
		<path class="st0" d="M102.3,730.8h-33V184.5c0,0,15.8-4.5,33,0V730.8z"/>
		<path class="st3" d="M78.4,182.9v547.9h23.9V184.5C93.2,182.1,84.6,182.2,78.4,182.9z"/>
	</g>
	<g class="st4">
		<path class="st5" d="M173.1,363.4c0,0-38.9-73.2,16.5-73.2s16.5,73.2,16.5,73.2H173.1z"/>
		<path class="st5" d="M206.1,363.4h-33c0,0-4.6-8.7-8.4-20.1c-7.2-21.7-11.4-53,24.9-53c5.2,0,9.6,0.7,13.2,1.8c0,0,0,0,0,0
			C238,303.4,206.1,363.4,206.1,363.4z"/>
		<path class="st6" d="M206.1,363.4h-33c0,0-4.6-8.7-8.4-20.1c2.6,1.8,5.6,2.8,9.5,2.2c3.4-0.5,6.6-2.2,9.6-3.8
			c3.8-2,7.6-4.1,11.3-6.1c2-1.1,4.2-2.3,5.2-4.5c1.3-3-0.5-6.4-0.8-9.7c-0.4-3.6,1-7.1,2.5-10.4c1.5-3.3,3.3-6.6,3.7-10.2
			c0.4-3.2-0.5-6.7-2.9-8.8C238,303.4,206.1,363.4,206.1,363.4z"/>
		<path class="st7" d="M206.1,909.7h-33V363.4c0,0,15.8-4.5,33,0V909.7z"/>
		<path class="st8" d="M182.2,361.9v547.9h23.9V363.4C197,361.1,188.4,361.2,182.2,361.9z"/>
	</g>
	<g class="st4">
		<path class="st7" d="M308.2,730.8h-33V224.9c0,0,15.8-4.2,33,0V730.8z"/>
		<path class="st8" d="M284.3,223.4v507.3h23.9V224.9C299.1,222.7,290.5,222.8,284.3,223.4z"/>
		<path class="st9" d="M322.1,148.2c0.1,6.9-2.4,13.4-4.6,19.9c-0.8,2.6-1.6,5.1-2.3,7.7c-1.5,5.3-2.4,10.8-4,16
			c-0.6,2.1-0.9,4.2-1.1,6.4c-0.5,5.5-0.5,11-0.8,16.4c-0.4,6.1-0.7,12.2-0.3,18.2c0.2,2.4,0.5,4.8,0.3,7.3
			c-0.2,1.9-0.6,3.8-1.4,5.5c-2.6-0.8-5.2-1.7-7.8-2.6c-1.6-0.5-3.5-1.1-4.5-2.5c-1.1-1.5-1.9-3.3-2.6-5c-1-2.2-1.9-4.4-2.9-6.6
			c-0.6-1.4-1.3-2.9-2.4-3.9c-1.7-1.5-4-1.8-6.1-1.6c-0.9,0.1-5.9,0.5-6.4,1.3c2.1-3.5,3.1-7.4,3.5-11.4c0.6-6.5-0.5-13.4-1.9-19.7
			c-2.1-10.3-6-20.2-7.8-30.5c-1.8-10.4-1.2-21.7,5-30.2c6.1-8.4,17.5-12.5,27.6-10.3c0.7,0.1,1.4,0.3,2.1,0.5
			C314.1,126.6,322,137.1,322.1,148.2z"/>
		<path class="st10" d="M322.1,148.2c0.1,6.9-2.4,13.4-4.6,19.9c-0.8,2.6-1.6,5.1-2.3,7.7c-1.5,5.3-2.4,10.8-4,16
			c-0.6,2.1-0.9,4.2-1.1,6.4c-0.5,5.5-0.5,11-0.8,16.4c-0.4,6.1-0.7,12.2-0.3,18.2c0.2,2.4,0.5,4.8,0.3,7.3
			c-0.2,1.9-0.6,3.8-1.4,5.5c-2.6-0.8-5.2-1.7-7.8-2.6c-1.6-0.5-3.5-1.1-4.5-2.5c-1.1-1.5-1.9-3.3-2.6-5c-1-2.2-1.9-4.4-2.9-6.6
			c-0.6-1.4-1.3-2.9-2.4-3.9c-1.7-1.5-4-1.8-6.1-1.6c-0.9,0.1-5.9,0.5-6.4,1.3c2.1-3.5,3.1-7.4,3.5-11.4c1-0.6,2.1-1.1,3.1-1.6
			c2.2-1,4.3-2.1,6.5-3.1c-0.5,5.4,7.1,1,8.2-1.2c1.7-3.3,1.7-7.6,1-11.2c-1-5.6-2.9-11.5-0.7-16.8c1.9-4.4,6.5-7.6,6.8-12.4
			c0.5-8.4-12.4-12.6-12.7-21c-0.1-3.9,2.5-7.2,5.2-10.2c0.5-0.5,0.9-1,1.4-1.6c3.1-3.6,3.6-6.5,4.1-10.9c0-0.3,0.1-0.5,0.1-0.7
			c0.7,0.1,1.4,0.3,2.1,0.5C314.1,126.6,322,137.1,322.1,148.2z"/>
	</g>
	<g class="st4">
		<path class="st7" d="M416.8,730.8h-33V334.8c0,0,15.8-4.2,33,0V730.8z"/>
		<path class="st8" d="M392.9,333.4v397.4h23.9V334.8C407.8,332.6,399.1,332.8,392.9,333.4z"/>
		<path class="st9" d="M430.6,158c-0.9,7.2-3.9,13.8-5.5,20.8c-1.3,5.9-2.9,9.7-6.6,14.6c-1.3,1.6-2.3,3.6-2.2,5.7
			c0.1,1.1,0.5,2.1,0.8,3c2.1,6.6,0.2,14.7,0.2,21.6c0,5.4,0.2,10.8,0.4,16.2c0,15.3,1.1,30.7,1.6,46c0.1,2.7,0.2,5.5,0.3,8.2
			c0.3,12.2,0.2,24.4,0.2,36.6c-0.1,6.1-0.1,12.3-0.2,18.4c0,2.8,0.2,5.8-0.3,8.5c-0.4,3-0.9,5.9-1.4,8.9c-0.1,0.7-0.3,1.4-0.8,1.8
			c-0.7,0.5-1.7,0-2.4-0.4c-4.9-2.8-10-5.7-13.2-10.4c-1.7-2.5-2.8-5.3-4.1-8c-1.2-2.7-2.7-5.5-5-7.4c-2.3-2-5.6-3-8.4-1.9
			c-0.2-4.4-0.8-9-0.3-13.3c0.6-4.4,1.2-8.9,1.5-13.3c0.6-9.8,1.3-19.6,1.9-29.4c0.6-10,1.3-20,1.6-30c0.1-2.1,0.1-4.3,0.2-6.4
			c0.3-15.9-0.6-31.9-2.4-47.8c-0.8-6.5-0.9-13.4-1.9-19.8c-1.1-7.6-4.5-14.7-5.4-22.5c-0.9-8.5-0.1-17.5,4.1-25
			c4.1-7.5,11.8-13.3,20.4-13.7c4.2-0.2,8.4,0.9,12.1,3c4.1,2.3,7.7,5.8,10.1,9.8C430.6,139.6,431.6,149.1,430.6,158z"/>
		<path class="st10" d="M430.6,158c-0.9,7.2-3.9,13.8-5.5,20.8c-1.3,5.9-2.9,9.7-6.6,14.6c-1.3,1.6-2.3,3.6-2.2,5.7
			c0.1,1.1,0.5,2.1,0.8,3c2.1,6.6,0.2,14.7,0.2,21.6c0,5.4,0.2,10.8,0.4,16.2c0,15.3,1.1,30.7,1.6,46c0.1,2.7,0.2,5.5,0.3,8.2
			c-0.6-4.1-1.1-8.2-1.7-12.3c-0.7-5.4-1.4-10.8-0.9-16.2c-5.8-3-8.8-9.6-9.7-16.1s-0.3-13-0.9-19.5c-0.6-6.5-2.9-13.3-8.2-17.1
			c4.8-2.8,6.5-9,6.1-14.5c-0.4-5.5-2.5-10.8-3.5-16.2c-1-5.5-0.5-11.6,3.3-15.7c2.9-3.1,7.9-5,8.6-9.2c0.6-3.3-1.8-6.3-3.7-9
			c-1.9-2.7-3.6-6.4-1.8-9.2c1.2-1.8,3.4-2.6,5.2-3.8c3.5-2.4,5.2-7.2,4.1-11.3c-0.2-0.6-0.4-1.3-0.7-1.9c4.1,2.3,7.7,5.8,10.1,9.8
			C430.6,139.6,431.6,149.1,430.6,158z"/>
	</g>
	<g class="st4">
		<path class="st7" d="M515.3,730.8h-33V448.1c0,0,15.8-4.2,33,0V730.8z"/>
		<path class="st8" d="M491.4,446.6v284.1h23.9V448.1C506.2,445.9,497.6,446,491.4,446.6z"/>
		<path class="st9" d="M582,183c-6.7,9.9-18.7,9-29.1,12.3c-10.8,3.5-18.9,12.9-23.3,23.4c-2.3,5.4-1.8,11-4.4,16.3
			c-2.6,5.5-7.1,9.9-8.9,15.9c-1.9,6.3-0.2,13,0.5,19.5c0.8,8.7-0.4,17.4-1.5,26.1c-0.3,2.3-0.6,4.6-0.9,6.9
			c-3.4,29.8,2.7,58.3,5.1,87.8c0.8,9.7,1.7,19.5,2.6,29.2c0.9,9.9-3.5,21.8-2.5,31.7c1.3,14.1-1.6,26.5-4.3,40.3
			c0.3-2.3-3.7-6.2-5.8-7.3c-2-1.1-4.4-1.7-6.1-3.2c-2.4-2-3.1-5.3-4.1-8.2c-3.7-10.7-7.7-17.6-18-22.1c8.6-42.5,7.1-88.3,3.5-131.5
			c-0.6-7.6-1.5-15.2-2-22.8c-0.4-5.9-0.7-11.8-0.8-17.7c-0.2-13,0.5-26.5,5.1-38.8c1.9-5,5.7-8.9,7.6-13.8
			c2.5-6.4,3.4-12.4,7.1-18.5c2.4-4,4.4-8.8,7.3-12.4c2.3-2.9,5.5-4.6,7.4-8c1.7-3.2,2.7-6.7,4.1-10c3.5-8.2,9.8-13.4,14.7-20.5
			c4.3-6.2,7.9-10.5,15.4-13.5c9.4-3.8,21.1-1.6,28.5,5.2c1.8,1.6,3.4,3.5,4.6,5.7C588.7,163.4,587.5,174.8,582,183z"/>
		<path class="st10" d="M582,183c-6.7,9.9-18.7,9-29.1,12.3c-10.8,3.5-18.9,12.9-23.3,23.4c-2.3,5.4-1.8,11-4.4,16.3
			c-2.6,5.5-7.1,9.9-8.9,15.9c-1.9,6.3-0.2,13,0.5,19.5c0.8,8.7-0.4,17.4-1.5,26.1c-2.4-13.5-3.3-27.4-4.3-41.1
			c-0.6-8.2-2.9-18.3-0.3-26.3c0.9-2.8,2.4-6.2,3.9-8.7c1.9-3.2,6.3-3.1,7.8-6c1-1.9-0.4-4.2-0.1-6.3c0.3-1.6,1.6-2.9,3.1-3.7
			s3.1-1.2,4.6-1.8c5.2-2.2,9.3-7.7,10.3-13.2c0.8-4.2,0.2-9.6,5.6-10.6c3.2-0.6,6.2,1.1,9.2,2.5c2.9,1.4,6.6,2.3,9.2,0.4
			c3-2.3,2.5-7.2,5-10.1c1.3-1.5,3.3-2.3,5-3.3c4-2.6,6.6-7.2,6.7-12c0.1-2.5-0.6-4.9-1.8-7.1c1.8,1.6,3.4,3.5,4.6,5.7
			C588.7,163.4,587.5,174.8,582,183z"/>
	</g>
	<g class="st4">
		<path class="st7" d="M649.2,730.8h-33V471.1c0,0,15.8-4.2,33,0V730.8z"/>
		<path class="st8" d="M625.3,469.6v261.1h23.9V471.1C640.2,468.9,631.5,469,625.3,469.6z"/>
		<path class="st9" d="M655.2,375c0,4.7-0.1,9.4-0.2,14.1c-0.1,6.4-0.3,12.8-0.9,19.2c-0.7,6.3,0.2,12.2-1.3,18.5
			c-1.5,6.1-3.7,12-4.7,18.2c-0.7,4.8-0.7,10.1,1.3,14.6c1.8,4.1,3.3,5.6,3.2,10.3c-0.3,10.9-0.7,21.7-1.3,32.6
			c-0.2,3.9,1.1,13.9-2.5,16.3c-4.2,2.8-7.7-3.8-9.3-6.7c-2.6-4.5-4.7-9.9-9.5-11.8c-2.9-1.1-6.2-0.6-9.3-0.6
			c-3.1,0-6.6-0.9-8.1-3.7c-1.4-2.7-0.3-5.9,0.6-8.8c3-9.5,3.4-19.8,1.1-29.6c-2.1-9.2-1.7-19.9-0.1-29.3c1.6-9.3,5-18.2,7.1-27.5
			c4.7-20.7,2.7-42.3,2.5-63.6c-0.1-7.2,0.1-14.4,0.2-21.6c0.3-13,0.6-25.9-0.4-38.8c-1.5-20.1-6.2-40.5-17.7-57.1
			c-6.1-8.9-14.2-17-15.9-27.6c-1.2-7.8,1.7-15.9,7.1-21.5c2.3-2.3,4.9-4.2,7.9-5.4c10.2-4.3,23.2-0.7,29.7,8.3
			c3.9,5.4,6,12.1,5.5,18.7c-0.5,7.3,0.6,13.8,1.8,21.1c2.9,17.8,5.4,35.7,7.4,53.7C653.4,302.8,655.3,338.9,655.2,375z"/>
		<path class="st10" d="M627.3,300.6c-0.9,5.1-1.9,10.1-3.2,15.1c0.3-13,0.6-25.9-0.4-38.8c-1.5-20.1-6.2-40.5-17.7-57.1
			c-6.1-8.9-14.2-17-15.9-27.6c-1.2-7.8,1.7-15.9,7.1-21.5c0.3,2.7,0,6,0.9,8.2c0.8,2.2,2,4.2,3.5,6c1.4,1.8,3.2,3.3,5.2,4.4
			c2.8,1.6,6.4,3.2,6.7,6.4c0.4,3.1-2.8,6-2.2,9.1c0.6,3.2,4.5,4.3,7.3,6.1c3.2,2.1,5,5.8,5.7,9.5c1,5.2,0.5,10.2,1.6,15.3
			c1.3,5.7,2,11.5,2.7,17.3C630.4,268.7,630,284.8,627.3,300.6z"/>
	</g>
	<g class="st4">
		<path class="st7" d="M757.1,730.8h-33v-98c0,0,15.8-4.2,33,0V730.8z"/>
		<path class="st8" d="M733.3,631.3v99.5h23.9v-98C748.1,630.6,739.4,630.7,733.3,631.3z"/>
		<path class="st9" d="M798.3,200.9c-2.6,4.5-6.4,8.4-8.5,13.1c-0.8,1.9-1.3,3.8-1.8,5.7c-1.9,7-4.3,13.8-6.8,20.7
			c-1.7,4.8-4.5,8.9-6.4,13.6c-2.5,6.1-2.9,13.2-4.7,19.5c-0.9,3.3-2,6.7-3.1,9.9c-0.4,1-4,8.8-3.6,9.2c1.8,2.1,1.6,5.1,1.4,7.8
			c-0.2,2.1-0.4,4.2-0.6,6.3c-0.2,2.5-0.5,5-0.7,7.6c-0.1,0.7-0.1,1.5-0.2,2.2c-1.2,16.5-0.8,33.6,1.2,49.9
			c2.1,17.8,5.6,35.3,7,53.2c1.6,20,0.6,40.2-1,60.3c-0.4,5-0.4,10.2-1.3,15.1c-0.7,3.6-1.7,6.4-1.9,10.2
			c-0.4,10.2-0.8,20.5-1.2,30.7c-0.3,6.9-0.6,13.9-3.5,20.2c-1.3,2.7-3,5.2-3.5,8.2c-0.5,2.9,0.4,5.9,1.1,8.8
			c3.2,13.9,1.1,27.8-0.2,41.8c-0.9,9.2-1.4,18.3,0.1,27.5c0.6,3.5-2.8,20.2-2.8,20.2c-0.5-0.8-1.9-3-2.3-3.9
			c-0.4-0.9-0.8-1.9-1.3-2.7c-0.9-1.7-2-3.3-3.3-4.7c-0.8-0.9-1.8-1.8-2.1-2.9c-0.3-1-0.2-2.1-0.2-3.2c0-2.8-1.1-5.5-3-7.5
			c-1.8,1.5-4.7,1.4-6.3-0.3c-0.6-0.6-1-1.3-1.6-2c-1-1.1-2.4-1.4-3.8-1.2c-1.4,0.2-2.9,0.8-4.2,1.3c-1.6,0.7-3.4,1.2-5,0.8
			c-0.4-0.1-0.7-0.3-1-0.5c-2-1.3-2.1-4.1-2-6.5c0.3-4.8,0.5-9.6,0.7-14.3c0.1-2.4,0.3-4.7,0.4-7.2c0.1-2-0.4-4,0.1-6.1
			c1.2-5,1.6-10.3,2.4-15.5c1.5-10.9,3.1-21.7,4.6-32.6c1.5-10.5,3-21.1,1.3-31.6c-1-6.3-3.1-12.6-2.4-19c0.8-6.8,4.6-12.7,6.4-19.2
			c1.6-5.7,1.7-12.4,2.3-18.4c1.4-16.3,2.6-32.6,2.1-48.9c-0.9-23.6-5.5-46.9-6.1-70.5c-0.4-12.1,0.4-24.2,1.6-36.3
			c1-9,2.2-18,3.7-26.9c0.7-4.5,1.4-9,2.2-13.4c0.5-3,1.8-5.4,2.6-8.3c1.1-3.8,0.9-8.1,1.2-11.9c0.4-4.2,0.9-8.4,1.6-12.6
			c1.3-8.3,3.4-16.5,6.7-24.3c1.3-3,2.8-5.9,3.2-9.1c0.6-3.7-0.2-7.4-0.3-11.1c-0.4-11.4,6.5-26.1,17.9-29.9c0,0,0,0,0,0
			c2.4-0.8,5.1-1.2,7.9-0.9c3,0.3,5.7,1.4,8,3c4.3,2.9,7.5,7.7,9.2,12.6c1.1,3.2,1.2,6.4,1.6,9.6c0.1,0.6,0.2,1.1,0.2,1.6
			C800.8,192.9,800.8,196.6,798.3,200.9z"/>
		<path class="st10" d="M798.3,200.9c-2.6,4.5-6.4,8.4-8.5,13.1c-0.8,1.9-1.3,3.8-1.8,5.7c-1.9,7-4.3,13.8-6.8,20.7
			c-1.7,4.8-4.5,8.9-6.4,13.6c-2.5,6.1-2.9,13.2-4.7,19.5c-0.9,3.3-2,6.7-3.1,9.9c-0.4,1-4,8.8-3.6,9.2c1.8,2.1,1.6,5.1,1.4,7.8
			c-0.2,2.1-0.4,4.2-0.6,6.3c-0.2,2.5-0.5,5-0.7,7.6c-0.1,0.7-0.1,1.5-0.2,2.2c-3.9-12.1-4.5-25.3-1.6-37.7
			c3.3-14.4,11.3-28.2,9.6-42.9c0-5.2-1.2-8.9,0.2-14.1c1.5-5.6,2.7-11.4,4-17c0.9-3.9,2.1-7.5,3.5-11.2c1.1-2.8,1.2-5.7,2.7-8.3
			c1.3-2.4,2.8-3.4,0.1-6.2c-0.1-0.1-0.2-0.2-0.3-0.3c-1.4-1.3-3-2.7-3.1-4.5c-0.2-1.4,0.6-2.8,0.8-4.2c0.8-4.9-2.5-6.4-5.8-7.9
			c2.4-0.8,5.1-1.2,7.9-0.9c3,0.3,5.7,1.4,8,3c4.3,2.9,7.5,7.7,9.2,12.6c1.1,3.2,1.2,6.4,1.6,9.6c0.1,0.6,0.2,1.1,0.2,1.6
			C800.8,192.9,800.8,196.6,798.3,200.9z"/>
	</g>
	<g class="st4">
		<path class="st11" d="M246.2,224c-14.5-16.9-17.7-42.5-7.8-62.4c9-18.3,28.1-33.1,27.5-53.4c-0.6-22-24.3-37-28.6-58.5
			c-3.2-15.7,4.6-31.7,15-43.9c10.3-12.2,23.3-22,33.5-34.4c10.2-12.4,17.6-28.6,13.7-44.2c-2.5-10.3-9.7-18.9-13.4-28.9
			c-3.8-9.9-2.7-23.5,6.8-28.2c8-3.9,17.5,0.5,24.5,5.9c28.8,22.3,39.1,65.4,23.5,98.4C335.9-15.2,328.7-5.5,327.4,6
			c-2.9,26.3,26.2,45.7,30.7,71.9c4.7,27.6-19.2,53.3-17.6,81.3c0.9,15.9,10.1,30.6,9.7,46.5c-0.5,21.9-20.8,38.6-41.9,37.9
			C284.8,242.8,263.1,243.7,246.2,224z"/>
		<path class="st11" d="M379.9,188.6c-15.6-12.5-21.3-35.9-13.1-54.1c3.8-8.4,10-15.5,15.1-23.2c5.1-7.7,9.1-16.8,7.8-25.9
			c-2-13.2-15.1-24.1-13-37.4c1.6-10.1,11.3-16.5,20-21.8C405.4,21,414.9,14.2,416,4c0.5-5.1-1.3-10.1-1.5-15.2
			c-0.3-5.1,1.9-11.1,6.8-12.4c5-1.3,9.8,3,12.5,7.5c7.7,12.9,7.1,30.2-1.5,42.5c-3.9,5.6-9.5,10.7-10.2,17.5
			c-0.9,7.9,5.1,14.8,10.1,21c19.3,24.4,28.1,56.9,23.6,87.7c-2,13.5-7.4,28.4-18.4,37.2c-8.8,7.1-24,9.2-34.8,7.9
			C394.3,196.9,386.4,193.8,379.9,188.6z"/>
	</g>
</g>
</svg>
